<?xml version="1.0" encoding="utf-8"?>
<!-- Generator: Adobe Illustrator 22.0.1, SVG Export Plug-In . SVG Version: 6.00 Build 0)  -->
<svg version="1.1" id="Capa_1" xmlns="http://www.w3.org/2000/svg" xmlns:xlink="http://www.w3.org/1999/xlink" x="0px" y="0px"
	 viewBox="0 0 480 480" style="enable-background:new 0 0 480 480;" xml:space="preserve">
<style type="text/css">
	.st0{fill:#BDBDBD;stroke:#757575;stroke-miterlimit:10;}
</style>
<g>
	<g>
		<g>
			<path class="st0" d="M440,72H40C17.9,72,0,89.9,0,112v256c0,22.1,17.9,40,40,40h400c2.2,0,4.5-0.2,6.7-0.6
				c19.2-3.2,33.3-19.9,33.3-39.4V112C480,89.9,462.1,72,440,72z M40,392c-12.4,0-22.8-9.5-23.9-21.9l159.5-104.3L337.8,392H40z
				 M464,368c0,11.7-8.5,21.8-20.1,23.7c-1.3,0.2-2.6,0.3-3.9,0.3h-76.1l-106-82.5l94.8-75.8L464,300.5V368z M464,281.9l-107.9-64.7
				c-2.9-1.7-6.5-1.5-9.1,0.6l-102.1,81.7l-64-49.7c-2.7-2.1-6.4-2.2-9.3-0.4L16,351.1V112c0-13.3,10.7-24,24-24h400
				c13.3,0,24,10.7,24,24V281.9z"/>
			<path class="st0" d="M240,120c-26.5,0-48,21.5-48,48c0,26.5,21.5,48,48,48c26.5,0,48-21.5,48-48S266.5,120,240,120z M240,200
				c-17.7,0-32-14.3-32-32s14.3-32,32-32s32,14.3,32,32S257.7,200,240,200z"/>
		</g>
	</g>
</g>
</svg>
